<?xml version="1.0" encoding="UTF-8" standalone="no"?>
<!DOCTYPE svg PUBLIC "-//W3C//DTD SVG 1.1//EN"
 "http://www.w3.org/Graphics/SVG/1.1/DTD/svg11.dtd">
<!-- Generated by graphviz version 12.2.1 (20241206.2353)
 -->
<!-- Title: G Pages: 1 -->
<svg width="1208pt" height="1459pt"
 viewBox="0.00 0.00 1207.75 1459.00" xmlns="http://www.w3.org/2000/svg" xmlns:xlink="http://www.w3.org/1999/xlink">
<g id="graph0" class="graph" transform="scale(1 1) rotate(0) translate(4 1455)">
<title>G</title>
<polygon fill="white" stroke="none" points="-4,4 -4,-1455 1203.75,-1455 1203.75,4 -4,4"/>
<g id="clust2" class="cluster">
<title>cluster_add842e8</title>
<polygon fill="none" stroke="black" stroke-dasharray="1,5" points="402.5,-8 402.5,-535 1167.12,-535 1167.12,-8 402.5,-8"/>
<text text-anchor="middle" x="784.81" y="-517.7" font-family="Times New Roman,serif" font-size="14.00">File: LLM</text>
</g>
<g id="clust3" class="cluster">
<title>cluster_0db0cdfb</title>
<polygon fill="none" stroke="black" stroke-dasharray="1,5" points="410.5,-16 410.5,-201 1159.12,-201 1159.12,-16 410.5,-16"/>
<text text-anchor="middle" x="784.81" y="-183.7" font-family="Times New Roman,serif" font-size="14.00">Class: LLMGenerator</text>
</g>
<g id="clust4" class="cluster">
<title>cluster_26ec4018</title>
<polygon fill="none" stroke="black" stroke-dasharray="1,5" points="428.88,-209 428.88,-502 776.88,-502 776.88,-209 428.88,-209"/>
<text text-anchor="middle" x="602.88" y="-484.7" font-family="Times New Roman,serif" font-size="14.00">Class: LLM_Evaluator</text>
</g>
<g id="clust5" class="cluster">
<title>cluster_ace12d03</title>
<polygon fill="none" stroke="black" stroke-dasharray="1,5" points="84,-1217 84,-1443 958.38,-1443 958.38,-1217 84,-1217"/>
<text text-anchor="middle" x="521.19" y="-1425.7" font-family="Times New Roman,serif" font-size="14.00">File: evaluation</text>
</g>
<g id="clust6" class="cluster">
<title>cluster_32b4be04</title>
<polygon fill="none" stroke="black" stroke-dasharray="1,5" points="428.88,-1225 428.88,-1410 950.38,-1410 950.38,-1225 428.88,-1225"/>
<text text-anchor="middle" x="689.62" y="-1392.7" font-family="Times New Roman,serif" font-size="14.00">Class: Metrics</text>
</g>
<g id="clust7" class="cluster">
<title>cluster_edd30ab2</title>
<polygon fill="none" stroke="black" stroke-dasharray="1,5" points="84,-664 84,-741 387.12,-741 387.12,-664 84,-664"/>
<text text-anchor="middle" x="235.56" y="-723.7" font-family="Times New Roman,serif" font-size="14.00">File: main</text>
</g>
<g id="clust8" class="cluster">
<title>cluster_2f806ce6</title>
<polygon fill="none" stroke="black" stroke-dasharray="1,5" points="420.88,-898 420.88,-1209 1164.12,-1209 1164.12,-898 420.88,-898"/>
<text text-anchor="middle" x="792.5" y="-1191.7" font-family="Times New Roman,serif" font-size="14.00">File: retriever</text>
</g>
<g id="clust9" class="cluster">
<title>cluster_bb538ded</title>
<polygon fill="none" stroke="black" stroke-dasharray="1,5" points="432.25,-906 432.25,-1037 748.75,-1037 748.75,-906 432.25,-906"/>
<text text-anchor="middle" x="590.5" y="-1019.7" font-family="Times New Roman,serif" font-size="14.00">Class: Retriever</text>
</g>
<g id="clust10" class="cluster">
<title>cluster_6e75ebb3</title>
<polygon fill="none" stroke="black" stroke-dasharray="1,5" points="428.88,-1045 428.88,-1176 1156.12,-1176 1156.12,-1045 428.88,-1045"/>
<text text-anchor="middle" x="792.5" y="-1158.7" font-family="Times New Roman,serif" font-size="14.00">Class: Retriever_Evaluator</text>
</g>
<g id="clust11" class="cluster">
<title>cluster_6061e11c</title>
<polygon fill="none" stroke="black" stroke-dasharray="1,5" points="798,-543 798,-890 1191.75,-890 1191.75,-543 798,-543"/>
<text text-anchor="middle" x="994.88" y="-872.7" font-family="Times New Roman,serif" font-size="14.00">File: utils</text>
</g>
<!-- Legend -->
<g id="node1" class="node">
<title>Legend</title>
<polygon fill="none" stroke="black" points="1,-634.75 1,-653.25 265,-653.25 265,-634.75 1,-634.75"/>
<text text-anchor="start" x="80.88" y="-638.95" font-family="Times New Roman,serif" font-size="14.00">Code2flow Legend</text>
<polygon fill="none" stroke="black" points="1,-540.75 1,-634.75 265,-634.75 265,-540.75 1,-540.75"/>
<polygon fill="none" stroke="black" points="3,-610.25 3,-632.75 213,-632.75 213,-610.25 3,-610.25"/>
<text text-anchor="start" x="62.25" y="-616.45" font-family="Times New Roman,serif" font-size="14.00">Regular function</text>
<polygon fill="#cccccc" stroke="none" points="213,-610.25 213,-632.75 263,-632.75 263,-610.25 213,-610.25"/>
<polygon fill="none" stroke="black" points="213,-610.25 213,-632.75 263,-632.75 263,-610.25 213,-610.25"/>
<polygon fill="none" stroke="black" points="3,-587.75 3,-610.25 213,-610.25 213,-587.75 3,-587.75"/>
<text text-anchor="start" x="14.25" y="-593.95" font-family="Times New Roman,serif" font-size="14.00">Trunk function (nothing calls this)</text>
<polygon fill="#966f33" stroke="none" points="213,-587.75 213,-610.25 263,-610.25 263,-587.75 213,-587.75"/>
<polygon fill="none" stroke="black" points="213,-587.75 213,-610.25 263,-610.25 263,-587.75 213,-587.75"/>
<polygon fill="none" stroke="black" points="3,-565.25 3,-587.75 213,-587.75 213,-565.25 3,-565.25"/>
<text text-anchor="start" x="6" y="-571.45" font-family="Times New Roman,serif" font-size="14.00">Leaf function (this calls nothing else)</text>
<polygon fill="#6db33f" stroke="none" points="213,-565.25 213,-587.75 263,-587.75 263,-565.25 213,-565.25"/>
<polygon fill="none" stroke="black" points="213,-565.25 213,-587.75 263,-587.75 263,-565.25 213,-565.25"/>
<polygon fill="none" stroke="black" points="3,-542.75 3,-565.25 213,-565.25 213,-542.75 3,-542.75"/>
<text text-anchor="start" x="72.38" y="-548.95" font-family="Times New Roman,serif" font-size="14.00">Function call</text>
<polygon fill="none" stroke="black" points="213,-542.75 213,-565.25 263,-565.25 263,-542.75 213,-542.75"/>
<text text-anchor="start" x="230.88" y="-548.95" font-family="Times New Roman,serif" font-size="14.00">→</text>
<polygon fill="none" stroke="black" points="2,-541.75 2,-633.75 264,-633.75 264,-541.75 2,-541.75"/>
<polygon fill="none" stroke="black" points="0,-539.75 0,-654.25 266,-654.25 266,-539.75 0,-539.75"/>
</g>
<!-- node_d8e104d8 -->
<g id="node2" class="node">
<title>node_d8e104d8</title>
<path fill="#cccccc" stroke="black" d="M519.25,-168C519.25,-168 452.25,-168 452.25,-168 446.25,-168 440.25,-162 440.25,-156 440.25,-156 440.25,-144 440.25,-144 440.25,-138 446.25,-132 452.25,-132 452.25,-132 519.25,-132 519.25,-132 525.25,-132 531.25,-138 531.25,-144 531.25,-144 531.25,-156 531.25,-156 531.25,-162 525.25,-168 519.25,-168"/>
<text text-anchor="middle" x="485.75" y="-144.95" font-family="Times New Roman,serif" font-size="14.00">32: __init__()</text>
</g>
<!-- node_e333b74a -->
<g id="node40" class="node">
<title>node_e333b74a</title>
<path fill="#6db33f" stroke="black" d="M937.5,-803C937.5,-803 818,-803 818,-803 812,-803 806,-797 806,-791 806,-791 806,-779 806,-779 806,-773 812,-767 818,-767 818,-767 937.5,-767 937.5,-767 943.5,-767 949.5,-773 949.5,-779 949.5,-779 949.5,-791 949.5,-791 949.5,-797 943.5,-803 937.5,-803"/>
<text text-anchor="middle" x="877.75" y="-779.95" font-family="Times New Roman,serif" font-size="14.00">16: convert_doc_pool()</text>
</g>
<!-- node_d8e104d8&#45;&gt;node_e333b74a -->
<g id="edge1" class="edge">
<title>node_d8e104d8&#45;&gt;node_e333b74a</title>
<path fill="none" stroke="#000000" stroke-width="2" d="M531.67,-156C534.8,-156 536.75,-156 536.75,-156 536.75,-156 536.75,-776 536.75,-776 536.75,-776 792.82,-776 792.82,-776"/>
<polygon fill="#000000" stroke="#000000" stroke-width="2" points="792.82,-779.5 802.82,-776 792.82,-772.5 792.82,-779.5"/>
</g>
<!-- node_b42a3c9e -->
<g id="node41" class="node">
<title>node_b42a3c9e</title>
<path fill="#6db33f" stroke="black" d="M928.88,-641C928.88,-641 826.62,-641 826.62,-641 820.62,-641 814.62,-635 814.62,-629 814.62,-629 814.62,-617 814.62,-617 814.62,-611 820.62,-605 826.62,-605 826.62,-605 928.88,-605 928.88,-605 934.88,-605 940.88,-611 940.88,-617 940.88,-617 940.88,-629 940.88,-629 940.88,-635 934.88,-641 928.88,-641"/>
<text text-anchor="middle" x="877.75" y="-617.95" font-family="Times New Roman,serif" font-size="14.00">39: convert_oracle()</text>
</g>
<!-- node_d8e104d8&#45;&gt;node_b42a3c9e -->
<g id="edge2" class="edge">
<title>node_d8e104d8&#45;&gt;node_b42a3c9e</title>
<path fill="none" stroke="#000000" stroke-width="2" d="M531.37,-144C535.26,-144 537.75,-144 537.75,-144 537.75,-144 537.75,-623 537.75,-623 537.75,-623 801.17,-623 801.17,-623"/>
<polygon fill="#000000" stroke="#000000" stroke-width="2" points="801.17,-626.5 811.17,-623 801.17,-619.5 801.17,-626.5"/>
</g>
<!-- node_08881b66 -->
<g id="node3" class="node">
<title>node_08881b66</title>
<path fill="#cccccc" stroke="black" d="M541,-60C541,-60 430.5,-60 430.5,-60 424.5,-60 418.5,-54 418.5,-48 418.5,-48 418.5,-36 418.5,-36 418.5,-30 424.5,-24 430.5,-24 430.5,-24 541,-24 541,-24 547,-24 553,-30 553,-36 553,-36 553,-48 553,-48 553,-54 547,-60 541,-60"/>
<text text-anchor="middle" x="485.75" y="-36.95" font-family="Times New Roman,serif" font-size="14.00">194: generate_LLM()</text>
</g>
<!-- node_0deec38f -->
<g id="node4" class="node">
<title>node_0deec38f</title>
<path fill="#cccccc" stroke="black" d="M758,-60C758,-60 601,-60 601,-60 595,-60 589,-54 589,-48 589,-48 589,-36 589,-36 589,-30 595,-24 601,-24 601,-24 758,-24 758,-24 764,-24 770,-30 770,-36 770,-36 770,-48 770,-48 770,-54 764,-60 758,-60"/>
<text text-anchor="middle" x="679.5" y="-36.95" font-family="Times New Roman,serif" font-size="14.00">109: generate_LLM_prompt()</text>
</g>
<!-- node_08881b66&#45;&gt;node_0deec38f -->
<g id="edge3" class="edge">
<title>node_08881b66&#45;&gt;node_0deec38f</title>
<path fill="none" stroke="#d55e00" stroke-width="2" d="M553.24,-36C553.24,-36 575.71,-36 575.71,-36"/>
<polygon fill="#d55e00" stroke="#d55e00" stroke-width="2" points="575.71,-39.5 585.71,-36 575.71,-32.5 575.71,-39.5"/>
</g>
<!-- node_38c68eca -->
<g id="node7" class="node">
<title>node_38c68eca</title>
<path fill="#cccccc" stroke="black" d="M743.75,-114C743.75,-114 615.25,-114 615.25,-114 609.25,-114 603.25,-108 603.25,-102 603.25,-102 603.25,-90 603.25,-90 603.25,-84 609.25,-78 615.25,-78 615.25,-78 743.75,-78 743.75,-78 749.75,-78 755.75,-84 755.75,-90 755.75,-90 755.75,-102 755.75,-102 755.75,-108 749.75,-114 743.75,-114"/>
<text text-anchor="middle" x="679.5" y="-90.95" font-family="Times New Roman,serif" font-size="14.00">177: generate_response()</text>
</g>
<!-- node_08881b66&#45;&gt;node_38c68eca -->
<g id="edge4" class="edge">
<title>node_08881b66&#45;&gt;node_38c68eca</title>
<path fill="none" stroke="#d55e00" stroke-width="2" d="M553.14,-48C563.45,-48 570.75,-48 570.75,-48 570.75,-48 570.75,-87 570.75,-87 570.75,-87 589.76,-87 589.76,-87"/>
<polygon fill="#d55e00" stroke="#d55e00" stroke-width="2" points="589.76,-90.5 599.76,-87 589.76,-83.5 589.76,-90.5"/>
</g>
<!-- node_c638531b -->
<g id="node42" class="node">
<title>node_c638531b</title>
<path fill="#6db33f" stroke="black" d="M1121.88,-587C1121.88,-587 1047.38,-587 1047.38,-587 1041.38,-587 1035.38,-581 1035.38,-575 1035.38,-575 1035.38,-563 1035.38,-563 1035.38,-557 1041.38,-551 1047.38,-551 1047.38,-551 1121.88,-551 1121.88,-551 1127.88,-551 1133.88,-557 1133.88,-563 1133.88,-563 1133.88,-575 1133.88,-575 1133.88,-581 1127.88,-587 1121.88,-587"/>
<text text-anchor="middle" x="1084.62" y="-563.95" font-family="Times New Roman,serif" font-size="14.00">62: load_json()</text>
</g>
<!-- node_0deec38f&#45;&gt;node_c638531b -->
<g id="edge7" class="edge">
<title>node_0deec38f&#45;&gt;node_c638531b</title>
<path fill="none" stroke="#cc79a7" stroke-width="2" d="M770.19,-42C856.64,-42 973.75,-42 973.75,-42 973.75,-42 973.75,-560 973.75,-560 973.75,-560 1022,-560 1022,-560"/>
<polygon fill="#cc79a7" stroke="#cc79a7" stroke-width="2" points="1022,-563.5 1032,-560 1022,-556.5 1022,-563.5"/>
</g>
<!-- node_f8b8e4ed -->
<g id="node5" class="node">
<title>node_f8b8e4ed</title>
<path fill="#cccccc" stroke="black" d="M540.62,-114C540.62,-114 430.88,-114 430.88,-114 424.88,-114 418.88,-108 418.88,-102 418.88,-102 418.88,-90 418.88,-90 418.88,-84 424.88,-78 430.88,-78 430.88,-78 540.62,-78 540.62,-78 546.62,-78 552.62,-84 552.62,-90 552.62,-90 552.62,-102 552.62,-102 552.62,-108 546.62,-114 540.62,-114"/>
<text text-anchor="middle" x="485.75" y="-90.95" font-family="Times New Roman,serif" font-size="14.00">203: generate_RAG()</text>
</g>
<!-- node_ecf7928d -->
<g id="node6" class="node">
<title>node_ecf7928d</title>
<path fill="#6db33f" stroke="black" d="M757.62,-168C757.62,-168 601.38,-168 601.38,-168 595.38,-168 589.38,-162 589.38,-156 589.38,-156 589.38,-144 589.38,-144 589.38,-138 595.38,-132 601.38,-132 601.38,-132 757.62,-132 757.62,-132 763.62,-132 769.62,-138 769.62,-144 769.62,-144 769.62,-156 769.62,-156 769.62,-162 763.62,-168 757.62,-168"/>
<text text-anchor="middle" x="679.5" y="-144.95" font-family="Times New Roman,serif" font-size="14.00">147: generate_RAG_prompt()</text>
</g>
<!-- node_f8b8e4ed&#45;&gt;node_ecf7928d -->
<g id="edge10" class="edge">
<title>node_f8b8e4ed&#45;&gt;node_ecf7928d</title>
<path fill="none" stroke="#0072b2" stroke-width="2" d="M552.88,-105C576.26,-105 596.75,-105 596.75,-105 596.75,-105 596.75,-118.67 596.75,-118.67"/>
<polygon fill="#0072b2" stroke="#0072b2" stroke-width="2" points="593.25,-118.67 596.75,-128.67 600.25,-118.67 593.25,-118.67"/>
</g>
<!-- node_f8b8e4ed&#45;&gt;node_38c68eca -->
<g id="edge11" class="edge">
<title>node_f8b8e4ed&#45;&gt;node_38c68eca</title>
<path fill="none" stroke="#0072b2" stroke-width="2" d="M552.97,-96C552.97,-96 589.74,-96 589.74,-96"/>
<polygon fill="#0072b2" stroke="#0072b2" stroke-width="2" points="589.74,-99.5 599.74,-96 589.74,-92.5 589.74,-99.5"/>
</g>
<!-- node_f8b8e4ed&#45;&gt;node_c638531b -->
<g id="edge14" class="edge">
<title>node_f8b8e4ed&#45;&gt;node_c638531b</title>
<path fill="none" stroke="#0072b2" stroke-width="2" d="M539.75,-114.45C539.75,-199.01 539.75,-545.38 539.75,-545.38 539.75,-545.38 1067.75,-545.38 1067.75,-545.38 1067.75,-545.38 1067.75,-545.92 1067.75,-545.92"/>
<polygon fill="#0072b2" stroke="#0072b2" stroke-width="2" points="1064.25,-537.83 1067.75,-547.83 1071.25,-537.83 1064.25,-537.83"/>
</g>
<!-- node_ef1044fd -->
<g id="node9" class="node">
<title>node_ef1044fd</title>
<path fill="#cccccc" stroke="black" d="M934.88,-114C934.88,-114 820.62,-114 820.62,-114 814.62,-114 808.62,-108 808.62,-102 808.62,-102 808.62,-90 808.62,-90 808.62,-84 814.62,-78 820.62,-78 820.62,-78 934.88,-78 934.88,-78 940.88,-78 946.88,-84 946.88,-90 946.88,-90 946.88,-102 946.88,-102 946.88,-108 940.88,-114 934.88,-114"/>
<text text-anchor="middle" x="877.75" y="-90.95" font-family="Times New Roman,serif" font-size="14.00">92: process_prompts()</text>
</g>
<!-- node_38c68eca&#45;&gt;node_ef1044fd -->
<g id="edge15" class="edge">
<title>node_38c68eca&#45;&gt;node_ef1044fd</title>
<path fill="none" stroke="#56b4e9" stroke-width="2" d="M756.15,-87C756.15,-87 795.4,-87 795.4,-87"/>
<polygon fill="#56b4e9" stroke="#56b4e9" stroke-width="2" points="795.4,-90.5 805.4,-87 795.4,-83.5 795.4,-90.5"/>
</g>
<!-- node_8fb67e2b -->
<g id="node39" class="node">
<title>node_8fb67e2b</title>
<path fill="#cccccc" stroke="black" d="M916.88,-587C916.88,-587 838.62,-587 838.62,-587 832.62,-587 826.62,-581 826.62,-575 826.62,-575 826.62,-563 826.62,-563 826.62,-557 832.62,-551 838.62,-551 838.62,-551 916.88,-551 916.88,-551 922.88,-551 928.88,-557 928.88,-563 928.88,-563 928.88,-575 928.88,-575 928.88,-581 922.88,-587 916.88,-587"/>
<text text-anchor="middle" x="877.75" y="-563.95" font-family="Times New Roman,serif" font-size="14.00">51: check_file()</text>
</g>
<!-- node_38c68eca&#45;&gt;node_8fb67e2b -->
<g id="edge16" class="edge">
<title>node_38c68eca&#45;&gt;node_8fb67e2b</title>
<path fill="none" stroke="#56b4e9" stroke-width="2" d="M756.02,-96C776.84,-96 793.75,-96 793.75,-96 793.75,-96 793.75,-563 793.75,-563 793.75,-563 813.44,-563 813.44,-563"/>
<polygon fill="#56b4e9" stroke="#56b4e9" stroke-width="2" points="813.44,-566.5 823.44,-563 813.44,-559.5 813.44,-566.5"/>
</g>
<!-- node_815d6953 -->
<g id="node45" class="node">
<title>node_815d6953</title>
<path fill="#cccccc" stroke="black" d="M915.38,-695C915.38,-695 840.12,-695 840.12,-695 834.12,-695 828.12,-689 828.12,-683 828.12,-683 828.12,-671 828.12,-671 828.12,-665 834.12,-659 840.12,-659 840.12,-659 915.38,-659 915.38,-659 921.38,-659 927.38,-665 927.38,-671 927.38,-671 927.38,-683 927.38,-683 927.38,-689 921.38,-695 915.38,-695"/>
<text text-anchor="middle" x="877.75" y="-671.95" font-family="Times New Roman,serif" font-size="14.00">80: save_json()</text>
</g>
<!-- node_38c68eca&#45;&gt;node_815d6953 -->
<g id="edge17" class="edge">
<title>node_38c68eca&#45;&gt;node_815d6953</title>
<path fill="none" stroke="#56b4e9" stroke-width="2" d="M756.21,-105C770.87,-105 781.75,-105 781.75,-105 781.75,-105 781.75,-663.33 781.75,-663.33 781.75,-663.33 814.75,-663.33 814.75,-663.33"/>
<polygon fill="#56b4e9" stroke="#56b4e9" stroke-width="2" points="814.75,-666.83 824.75,-663.33 814.75,-659.83 814.75,-666.83"/>
</g>
<!-- node_41033f58 -->
<g id="node8" class="node">
<title>node_41033f58</title>
<path fill="#6db33f" stroke="black" d="M1139.12,-114C1139.12,-114 1030.12,-114 1030.12,-114 1024.12,-114 1018.12,-108 1018.12,-102 1018.12,-102 1018.12,-90 1018.12,-90 1018.12,-84 1024.12,-78 1030.12,-78 1030.12,-78 1139.12,-78 1139.12,-78 1145.12,-78 1151.12,-84 1151.12,-90 1151.12,-90 1151.12,-102 1151.12,-102 1151.12,-108 1145.12,-114 1139.12,-114"/>
<text text-anchor="middle" x="1084.62" y="-90.95" font-family="Times New Roman,serif" font-size="14.00">75: process_prompt()</text>
</g>
<!-- node_ef1044fd&#45;&gt;node_41033f58 -->
<g id="edge18" class="edge">
<title>node_ef1044fd&#45;&gt;node_41033f58</title>
<path fill="none" stroke="#0072b2" stroke-width="2" d="M947.21,-96C947.21,-96 1004.77,-96 1004.77,-96"/>
<polygon fill="#0072b2" stroke="#0072b2" stroke-width="2" points="1004.77,-99.5 1014.77,-96 1004.77,-92.5 1004.77,-99.5"/>
</g>
<!-- node_d43312d7 -->
<g id="node10" class="node">
<title>node_d43312d7</title>
<path fill="#cccccc" stroke="black" d="M522.62,-307C522.62,-307 448.88,-307 448.88,-307 442.88,-307 436.88,-301 436.88,-295 436.88,-295 436.88,-283 436.88,-283 436.88,-277 442.88,-271 448.88,-271 448.88,-271 522.62,-271 522.62,-271 528.62,-271 534.62,-277 534.62,-283 534.62,-283 534.62,-295 534.62,-295 534.62,-301 528.62,-307 522.62,-307"/>
<text text-anchor="middle" x="485.75" y="-283.95" font-family="Times New Roman,serif" font-size="14.00">214: __init__()</text>
</g>
<!-- node_6dbc8227 -->
<g id="node14" class="node">
<title>node_6dbc8227</title>
<path fill="#6db33f" stroke="black" d="M746.75,-253C746.75,-253 612.25,-253 612.25,-253 606.25,-253 600.25,-247 600.25,-241 600.25,-241 600.25,-229 600.25,-229 600.25,-223 606.25,-217 612.25,-217 612.25,-217 746.75,-217 746.75,-217 752.75,-217 758.75,-223 758.75,-229 758.75,-229 758.75,-241 758.75,-241 758.75,-247 752.75,-253 746.75,-253"/>
<text text-anchor="middle" x="679.5" y="-229.95" font-family="Times New Roman,serif" font-size="14.00">219: check_eval_needed()</text>
</g>
<!-- node_d43312d7&#45;&gt;node_6dbc8227 -->
<g id="edge19" class="edge">
<title>node_d43312d7&#45;&gt;node_6dbc8227</title>
<path fill="none" stroke="#cc79a7" stroke-width="2" d="M485.75,-270.72C485.75,-255.05 485.75,-235 485.75,-235 485.75,-235 586.83,-235 586.83,-235"/>
<polygon fill="#cc79a7" stroke="#cc79a7" stroke-width="2" points="586.83,-238.5 596.83,-235 586.83,-231.5 586.83,-238.5"/>
</g>
<!-- node_b8e94b5b -->
<g id="node11" class="node">
<title>node_b8e94b5b</title>
<path fill="#6db33f" stroke="black" d="M749.38,-469C749.38,-469 609.62,-469 609.62,-469 603.62,-469 597.62,-463 597.62,-457 597.62,-457 597.62,-445 597.62,-445 597.62,-439 603.62,-433 609.62,-433 609.62,-433 749.38,-433 749.38,-433 755.38,-433 761.38,-439 761.38,-445 761.38,-445 761.38,-457 761.38,-457 761.38,-463 755.38,-469 749.38,-469"/>
<text text-anchor="middle" x="679.5" y="-445.95" font-family="Times New Roman,serif" font-size="14.00">242: calculate_EM_loose()</text>
</g>
<!-- node_2554cf95 -->
<g id="node12" class="node">
<title>node_2554cf95</title>
<path fill="#6db33f" stroke="black" d="M748.62,-307C748.62,-307 610.38,-307 610.38,-307 604.38,-307 598.38,-301 598.38,-295 598.38,-295 598.38,-283 598.38,-283 598.38,-277 604.38,-271 610.38,-271 610.38,-271 748.62,-271 748.62,-271 754.62,-271 760.62,-277 760.62,-283 760.62,-283 760.62,-295 760.62,-295 760.62,-301 754.62,-307 748.62,-307"/>
<text text-anchor="middle" x="679.5" y="-283.95" font-family="Times New Roman,serif" font-size="14.00">250: calculate_EM_strict()</text>
</g>
<!-- node_89872676 -->
<g id="node13" class="node">
<title>node_89872676</title>
<path fill="#6db33f" stroke="black" d="M726.88,-361C726.88,-361 632.12,-361 632.12,-361 626.12,-361 620.12,-355 620.12,-349 620.12,-349 620.12,-337 620.12,-337 620.12,-331 626.12,-325 632.12,-325 632.12,-325 726.88,-325 726.88,-325 732.88,-325 738.88,-331 738.88,-337 738.88,-337 738.88,-349 738.88,-349 738.88,-355 732.88,-361 726.88,-361"/>
<text text-anchor="middle" x="679.5" y="-337.95" font-family="Times New Roman,serif" font-size="14.00">258: calculate_f1()</text>
</g>
<!-- node_e237a254 -->
<g id="node15" class="node">
<title>node_e237a254</title>
<path fill="#6db33f" stroke="black" d="M756.88,-415C756.88,-415 602.12,-415 602.12,-415 596.12,-415 590.12,-409 590.12,-403 590.12,-403 590.12,-391 590.12,-391 590.12,-385 596.12,-379 602.12,-379 602.12,-379 756.88,-379 756.88,-379 762.88,-379 768.88,-385 768.88,-391 768.88,-391 768.88,-403 768.88,-403 768.88,-409 762.88,-415 756.88,-415"/>
<text text-anchor="middle" x="679.5" y="-391.95" font-family="Times New Roman,serif" font-size="14.00">228: check_inference_mode()</text>
</g>
<!-- node_6d8baa42 -->
<g id="node16" class="node">
<title>node_6d8baa42</title>
<path fill="#cccccc" stroke="black" d="M522.62,-442C522.62,-442 448.88,-442 448.88,-442 442.88,-442 436.88,-436 436.88,-430 436.88,-430 436.88,-418 436.88,-418 436.88,-412 442.88,-406 448.88,-406 448.88,-406 522.62,-406 522.62,-406 528.62,-406 534.62,-412 534.62,-418 534.62,-418 534.62,-430 534.62,-430 534.62,-436 528.62,-442 522.62,-442"/>
<text text-anchor="middle" x="485.75" y="-418.95" font-family="Times New Roman,serif" font-size="14.00">272: evaluate()</text>
</g>
<!-- node_6d8baa42&#45;&gt;node_b8e94b5b -->
<g id="edge20" class="edge">
<title>node_6d8baa42&#45;&gt;node_b8e94b5b</title>
<path fill="none" stroke="#56b4e9" stroke-width="2" d="M534.89,-437.5C534.89,-437.5 584.24,-437.5 584.24,-437.5"/>
<polygon fill="#56b4e9" stroke="#56b4e9" stroke-width="2" points="584.24,-441 594.24,-437.5 584.24,-434 584.24,-441"/>
</g>
<!-- node_6d8baa42&#45;&gt;node_2554cf95 -->
<g id="edge21" class="edge">
<title>node_6d8baa42&#45;&gt;node_2554cf95</title>
<path fill="none" stroke="#56b4e9" stroke-width="2" d="M534.91,-409C543.5,-409 549.75,-409 549.75,-409 549.75,-409 549.75,-289 549.75,-289 549.75,-289 585.04,-289 585.04,-289"/>
<polygon fill="#56b4e9" stroke="#56b4e9" stroke-width="2" points="585.04,-292.5 595.04,-289 585.04,-285.5 585.04,-292.5"/>
</g>
<!-- node_6d8baa42&#45;&gt;node_89872676 -->
<g id="edge22" class="edge">
<title>node_6d8baa42&#45;&gt;node_89872676</title>
<path fill="none" stroke="#56b4e9" stroke-width="2" d="M485.75,-405.62C485.75,-381.72 485.75,-343 485.75,-343 485.75,-343 606.76,-343 606.76,-343"/>
<polygon fill="#56b4e9" stroke="#56b4e9" stroke-width="2" points="606.76,-346.5 616.76,-343 606.76,-339.5 606.76,-346.5"/>
</g>
<!-- node_6d8baa42&#45;&gt;node_e237a254 -->
<g id="edge23" class="edge">
<title>node_6d8baa42&#45;&gt;node_e237a254</title>
<path fill="none" stroke="#56b4e9" stroke-width="2" d="M534.89,-412C534.89,-412 576.67,-412 576.67,-412"/>
<polygon fill="#56b4e9" stroke="#56b4e9" stroke-width="2" points="576.67,-415.5 586.67,-412 576.67,-408.5 576.67,-415.5"/>
</g>
<!-- node_6d8baa42&#45;&gt;node_c638531b -->
<g id="edge24" class="edge">
<title>node_6d8baa42&#45;&gt;node_c638531b</title>
<path fill="none" stroke="#56b4e9" stroke-width="2" d="M535.04,-424C680.98,-424 1100.75,-424 1100.75,-424 1100.75,-424 1100.75,-537.61 1100.75,-537.61"/>
<polygon fill="#56b4e9" stroke="#56b4e9" stroke-width="2" points="1097.25,-537.61 1100.75,-547.61 1104.25,-537.61 1097.25,-537.61"/>
</g>
<!-- node_6d8baa42&#45;&gt;node_815d6953 -->
<g id="edge25" class="edge">
<title>node_6d8baa42&#45;&gt;node_815d6953</title>
<path fill="none" stroke="#56b4e9" stroke-width="2" d="M494.75,-442.31C494.75,-498.98 494.75,-667.67 494.75,-667.67 494.75,-667.67 814.65,-667.67 814.65,-667.67"/>
<polygon fill="#56b4e9" stroke="#56b4e9" stroke-width="2" points="814.65,-671.17 824.65,-667.67 814.65,-664.17 814.65,-671.17"/>
</g>
<!-- node_6c7e785b -->
<g id="node46" class="node">
<title>node_6c7e785b</title>
<path fill="#cccccc" stroke="black" d="M917.25,-857C917.25,-857 838.25,-857 838.25,-857 832.25,-857 826.25,-851 826.25,-845 826.25,-845 826.25,-833 826.25,-833 826.25,-827 832.25,-821 838.25,-821 838.25,-821 917.25,-821 917.25,-821 923.25,-821 929.25,-827 929.25,-833 929.25,-833 929.25,-845 929.25,-845 929.25,-851 923.25,-857 917.25,-857"/>
<text text-anchor="middle" x="877.75" y="-833.95" font-family="Times New Roman,serif" font-size="14.00">85: save_jsonl()</text>
</g>
<!-- node_6d8baa42&#45;&gt;node_6c7e785b -->
<g id="edge26" class="edge">
<title>node_6d8baa42&#45;&gt;node_6c7e785b</title>
<path fill="none" stroke="#56b4e9" stroke-width="2" d="M476.75,-442.5C476.75,-521.93 476.75,-830 476.75,-830 476.75,-830 813.12,-830 813.12,-830"/>
<polygon fill="#56b4e9" stroke="#56b4e9" stroke-width="2" points="813.12,-833.5 823.12,-830 813.12,-826.5 813.12,-833.5"/>
</g>
<!-- node_af90f4ad -->
<g id="node17" class="node">
<title>node_af90f4ad</title>
<path fill="#966f33" stroke="black" d="M162,-1261C162,-1261 104,-1261 104,-1261 98,-1261 92,-1255 92,-1249 92,-1249 92,-1237 92,-1237 92,-1231 98,-1225 104,-1225 104,-1225 162,-1225 162,-1225 168,-1225 174,-1231 174,-1237 174,-1237 174,-1249 174,-1249 174,-1255 168,-1261 162,-1261"/>
<text text-anchor="middle" x="133" y="-1237.95" font-family="Times New Roman,serif" font-size="14.00">0: (global)()</text>
</g>
<!-- node_4c0798f6 -->
<g id="node24" class="node">
<title>node_4c0798f6</title>
<path fill="#cccccc" stroke="black" d="M370.5,-1261C370.5,-1261 314,-1261 314,-1261 308,-1261 302,-1255 302,-1249 302,-1249 302,-1237 302,-1237 302,-1231 308,-1225 314,-1225 314,-1225 370.5,-1225 370.5,-1225 376.5,-1225 382.5,-1231 382.5,-1237 382.5,-1237 382.5,-1249 382.5,-1249 382.5,-1255 376.5,-1261 370.5,-1261"/>
<text text-anchor="middle" x="342.25" y="-1237.95" font-family="Times New Roman,serif" font-size="14.00">139: main()</text>
</g>
<!-- node_af90f4ad&#45;&gt;node_4c0798f6 -->
<g id="edge27" class="edge">
<title>node_af90f4ad&#45;&gt;node_4c0798f6</title>
<path fill="none" stroke="#0072b2" stroke-width="2" d="M174.34,-1243C174.34,-1243 288.68,-1243 288.68,-1243"/>
<polygon fill="#0072b2" stroke="#0072b2" stroke-width="2" points="288.68,-1246.5 298.68,-1243 288.68,-1239.5 288.68,-1246.5"/>
</g>
<!-- node_dfbac75c -->
<g id="node18" class="node">
<title>node_dfbac75c</title>
<path fill="#6db33f" stroke="black" d="M519.25,-1269C519.25,-1269 452.25,-1269 452.25,-1269 446.25,-1269 440.25,-1263 440.25,-1257 440.25,-1257 440.25,-1245 440.25,-1245 440.25,-1239 446.25,-1233 452.25,-1233 452.25,-1233 519.25,-1233 519.25,-1233 525.25,-1233 531.25,-1239 531.25,-1245 531.25,-1245 531.25,-1257 531.25,-1257 531.25,-1263 525.25,-1269 519.25,-1269"/>
<text text-anchor="middle" x="485.75" y="-1245.95" font-family="Times New Roman,serif" font-size="14.00">20: __init__()</text>
</g>
<!-- node_aa3769cb -->
<g id="node19" class="node">
<title>node_aa3769cb</title>
<path fill="#6db33f" stroke="black" d="M930.38,-1377C930.38,-1377 825.12,-1377 825.12,-1377 819.12,-1377 813.12,-1371 813.12,-1365 813.12,-1365 813.12,-1353 813.12,-1353 813.12,-1347 819.12,-1341 825.12,-1341 825.12,-1341 930.38,-1341 930.38,-1341 936.38,-1341 942.38,-1347 942.38,-1353 942.38,-1353 942.38,-1365 942.38,-1365 942.38,-1371 936.38,-1377 930.38,-1377"/>
<text text-anchor="middle" x="877.75" y="-1353.95" font-family="Times New Roman,serif" font-size="14.00">99: calculate_score()</text>
</g>
<!-- node_96dd28af -->
<g id="node20" class="node">
<title>node_96dd28af</title>
<path fill="#cccccc" stroke="black" d="M522.62,-1323C522.62,-1323 448.88,-1323 448.88,-1323 442.88,-1323 436.88,-1317 436.88,-1311 436.88,-1311 436.88,-1299 436.88,-1299 436.88,-1293 442.88,-1287 448.88,-1287 448.88,-1287 522.62,-1287 522.62,-1287 528.62,-1287 534.62,-1293 534.62,-1299 534.62,-1299 534.62,-1311 534.62,-1311 534.62,-1317 528.62,-1323 522.62,-1323"/>
<text text-anchor="middle" x="485.75" y="-1299.95" font-family="Times New Roman,serif" font-size="14.00">120: evaluate()</text>
</g>
<!-- node_41f47f02 -->
<g id="node21" class="node">
<title>node_41f47f02</title>
<path fill="#6db33f" stroke="black" d="M756.5,-1269C756.5,-1269 602.5,-1269 602.5,-1269 596.5,-1269 590.5,-1263 590.5,-1257 590.5,-1257 590.5,-1245 590.5,-1245 590.5,-1239 596.5,-1233 602.5,-1233 602.5,-1233 756.5,-1233 756.5,-1233 762.5,-1233 768.5,-1239 768.5,-1245 768.5,-1245 768.5,-1257 768.5,-1257 768.5,-1263 762.5,-1269 756.5,-1269"/>
<text text-anchor="middle" x="679.5" y="-1245.95" font-family="Times New Roman,serif" font-size="14.00">24: get_analysis_and_report()</text>
</g>
<!-- node_96dd28af&#45;&gt;node_41f47f02 -->
<g id="edge28" class="edge">
<title>node_96dd28af&#45;&gt;node_41f47f02</title>
<path fill="none" stroke="#cc79a7" stroke-width="2" d="M535.02,-1305C568.88,-1305 607.75,-1305 607.75,-1305 607.75,-1305 607.75,-1282.31 607.75,-1282.31"/>
<polygon fill="#cc79a7" stroke="#cc79a7" stroke-width="2" points="611.25,-1282.31 607.75,-1272.31 604.25,-1282.31 611.25,-1282.31"/>
</g>
<!-- node_1ebd6541 -->
<g id="node22" class="node">
<title>node_1ebd6541</title>
<path fill="#6db33f" stroke="black" d="M717.12,-1323C717.12,-1323 641.88,-1323 641.88,-1323 635.88,-1323 629.88,-1317 629.88,-1311 629.88,-1311 629.88,-1299 629.88,-1299 629.88,-1293 635.88,-1287 641.88,-1287 641.88,-1287 717.12,-1287 717.12,-1287 723.12,-1287 729.12,-1293 729.12,-1299 729.12,-1299 729.12,-1311 729.12,-1311 729.12,-1317 723.12,-1323 717.12,-1323"/>
<text text-anchor="middle" x="679.5" y="-1299.95" font-family="Times New Roman,serif" font-size="14.00">75: load_files()</text>
</g>
<!-- node_96dd28af&#45;&gt;node_1ebd6541 -->
<g id="edge29" class="edge">
<title>node_96dd28af&#45;&gt;node_1ebd6541</title>
<path fill="none" stroke="#cc79a7" stroke-width="2" d="M534.89,-1314C534.89,-1314 616.37,-1314 616.37,-1314"/>
<polygon fill="#cc79a7" stroke="#cc79a7" stroke-width="2" points="616.37,-1317.5 626.37,-1314 616.37,-1310.5 616.37,-1317.5"/>
</g>
<!-- node_3efe5169 -->
<g id="node23" class="node">
<title>node_3efe5169</title>
<path fill="#cccccc" stroke="black" d="M722.75,-1377C722.75,-1377 636.25,-1377 636.25,-1377 630.25,-1377 624.25,-1371 624.25,-1365 624.25,-1365 624.25,-1353 624.25,-1353 624.25,-1347 630.25,-1341 636.25,-1341 636.25,-1341 722.75,-1341 722.75,-1341 728.75,-1341 734.75,-1347 734.75,-1353 734.75,-1353 734.75,-1365 734.75,-1365 734.75,-1371 728.75,-1377 722.75,-1377"/>
<text text-anchor="middle" x="679.5" y="-1353.95" font-family="Times New Roman,serif" font-size="14.00">105: sort_top_k()</text>
</g>
<!-- node_96dd28af&#45;&gt;node_3efe5169 -->
<g id="edge30" class="edge">
<title>node_96dd28af&#45;&gt;node_3efe5169</title>
<path fill="none" stroke="#cc79a7" stroke-width="2" d="M485.75,-1323.28C485.75,-1338.95 485.75,-1359 485.75,-1359 485.75,-1359 610.95,-1359 610.95,-1359"/>
<polygon fill="#cc79a7" stroke="#cc79a7" stroke-width="2" points="610.95,-1362.5 620.95,-1359 610.95,-1355.5 610.95,-1362.5"/>
</g>
<!-- node_96dd28af&#45;&gt;node_6c7e785b -->
<g id="edge31" class="edge">
<title>node_96dd28af&#45;&gt;node_6c7e785b</title>
<path fill="none" stroke="#cc79a7" stroke-width="2" d="M534.9,-1296C542.43,-1296 547.75,-1296 547.75,-1296 547.75,-1296 547.75,-848 547.75,-848 547.75,-848 812.8,-848 812.8,-848"/>
<polygon fill="#cc79a7" stroke="#cc79a7" stroke-width="2" points="812.8,-851.5 822.8,-848 812.8,-844.5 812.8,-851.5"/>
</g>
<!-- node_3efe5169&#45;&gt;node_aa3769cb -->
<g id="edge32" class="edge">
<title>node_3efe5169&#45;&gt;node_aa3769cb</title>
<path fill="none" stroke="#e69f00" stroke-width="2" d="M734.99,-1359C734.99,-1359 799.77,-1359 799.77,-1359"/>
<polygon fill="#e69f00" stroke="#e69f00" stroke-width="2" points="799.77,-1362.5 809.77,-1359 799.77,-1355.5 799.77,-1362.5"/>
</g>
<!-- node_4c0798f6&#45;&gt;node_d43312d7 -->
<g id="edge33" class="edge">
<title>node_4c0798f6&#45;&gt;node_d43312d7</title>
<path fill="none" stroke="#d55e00" stroke-width="2" d="M382.84,-1227C389.75,-1227 394.75,-1227 394.75,-1227 394.75,-1227 394.75,-289 394.75,-289 394.75,-289 423.49,-289 423.49,-289"/>
<polygon fill="#d55e00" stroke="#d55e00" stroke-width="2" points="423.49,-292.5 433.49,-289 423.49,-285.5 423.49,-292.5"/>
</g>
<!-- node_4c0798f6&#45;&gt;node_6d8baa42 -->
<g id="edge34" class="edge">
<title>node_4c0798f6&#45;&gt;node_6d8baa42</title>
<path fill="none" stroke="#d55e00" stroke-width="2" d="M382.73,-1229C395.69,-1229 406.75,-1229 406.75,-1229 406.75,-1229 406.75,-424 406.75,-424 406.75,-424 423.59,-424 423.59,-424"/>
<polygon fill="#d55e00" stroke="#d55e00" stroke-width="2" points="423.59,-427.5 433.59,-424 423.59,-420.5 423.59,-427.5"/>
</g>
<!-- node_4c0798f6&#45;&gt;node_dfbac75c -->
<g id="edge35" class="edge">
<title>node_4c0798f6&#45;&gt;node_dfbac75c</title>
<path fill="none" stroke="#d55e00" stroke-width="2" d="M382.99,-1247C382.99,-1247 426.83,-1247 426.83,-1247"/>
<polygon fill="#d55e00" stroke="#d55e00" stroke-width="2" points="426.83,-1250.5 436.83,-1247 426.83,-1243.5 426.83,-1250.5"/>
</g>
<!-- node_4c0798f6&#45;&gt;node_96dd28af -->
<g id="edge36" class="edge">
<title>node_4c0798f6&#45;&gt;node_96dd28af</title>
<path fill="none" stroke="#d55e00" stroke-width="2" d="M341.75,-1261.27C341.75,-1279.56 341.75,-1305 341.75,-1305 341.75,-1305 423.57,-1305 423.57,-1305"/>
<polygon fill="#d55e00" stroke="#d55e00" stroke-width="2" points="423.57,-1308.5 433.57,-1305 423.57,-1301.5 423.57,-1308.5"/>
</g>
<!-- node_78430153 -->
<g id="node31" class="node">
<title>node_78430153</title>
<path fill="#cccccc" stroke="black" d="M522.62,-1143C522.62,-1143 448.88,-1143 448.88,-1143 442.88,-1143 436.88,-1137 436.88,-1131 436.88,-1131 436.88,-1119 436.88,-1119 436.88,-1113 442.88,-1107 448.88,-1107 448.88,-1107 522.62,-1107 522.62,-1107 528.62,-1107 534.62,-1113 534.62,-1119 534.62,-1119 534.62,-1131 534.62,-1131 534.62,-1137 528.62,-1143 522.62,-1143"/>
<text text-anchor="middle" x="485.75" y="-1119.95" font-family="Times New Roman,serif" font-size="14.00">115: __init__()</text>
</g>
<!-- node_4c0798f6&#45;&gt;node_78430153 -->
<g id="edge37" class="edge">
<title>node_4c0798f6&#45;&gt;node_78430153</title>
<path fill="none" stroke="#d55e00" stroke-width="2" d="M382.99,-1231C425.41,-1231 485.75,-1231 485.75,-1231 485.75,-1231 485.75,-1156.49 485.75,-1156.49"/>
<polygon fill="#d55e00" stroke="#d55e00" stroke-width="2" points="489.25,-1156.49 485.75,-1146.49 482.25,-1156.49 489.25,-1156.49"/>
</g>
<!-- node_6ba67d6b -->
<g id="node36" class="node">
<title>node_6ba67d6b</title>
<path fill="#cccccc" stroke="black" d="M522.62,-1089C522.62,-1089 448.88,-1089 448.88,-1089 442.88,-1089 436.88,-1083 436.88,-1077 436.88,-1077 436.88,-1065 436.88,-1065 436.88,-1059 442.88,-1053 448.88,-1053 448.88,-1053 522.62,-1053 522.62,-1053 528.62,-1053 534.62,-1059 534.62,-1065 534.62,-1065 534.62,-1077 534.62,-1077 534.62,-1083 528.62,-1089 522.62,-1089"/>
<text text-anchor="middle" x="485.75" y="-1065.95" font-family="Times New Roman,serif" font-size="14.00">167: evaluate()</text>
</g>
<!-- node_4c0798f6&#45;&gt;node_6ba67d6b -->
<g id="edge38" class="edge">
<title>node_4c0798f6&#45;&gt;node_6ba67d6b</title>
<path fill="none" stroke="#d55e00" stroke-width="2" d="M360.75,-1224.59C360.75,-1180.22 360.75,-1071 360.75,-1071 360.75,-1071 423.68,-1071 423.68,-1071"/>
<polygon fill="#d55e00" stroke="#d55e00" stroke-width="2" points="423.68,-1074.5 433.68,-1071 423.68,-1067.5 423.68,-1074.5"/>
</g>
<!-- node_d9bc18de -->
<g id="node25" class="node">
<title>node_d9bc18de</title>
<path fill="#966f33" stroke="black" d="M162,-708C162,-708 104,-708 104,-708 98,-708 92,-702 92,-696 92,-696 92,-684 92,-684 92,-678 98,-672 104,-672 104,-672 162,-672 162,-672 168,-672 174,-678 174,-684 174,-684 174,-696 174,-696 174,-702 168,-708 162,-708"/>
<text text-anchor="middle" x="133" y="-684.95" font-family="Times New Roman,serif" font-size="14.00">0: (global)()</text>
</g>
<!-- node_2db0e0e3 -->
<g id="node26" class="node">
<title>node_2db0e0e3</title>
<path fill="#cccccc" stroke="black" d="M367.12,-708C367.12,-708 317.38,-708 317.38,-708 311.38,-708 305.38,-702 305.38,-696 305.38,-696 305.38,-684 305.38,-684 305.38,-678 311.38,-672 317.38,-672 317.38,-672 367.12,-672 367.12,-672 373.12,-672 379.12,-678 379.12,-684 379.12,-684 379.12,-696 379.12,-696 379.12,-702 373.12,-708 367.12,-708"/>
<text text-anchor="middle" x="342.25" y="-684.95" font-family="Times New Roman,serif" font-size="14.00">19: main()</text>
</g>
<!-- node_d9bc18de&#45;&gt;node_2db0e0e3 -->
<g id="edge39" class="edge">
<title>node_d9bc18de&#45;&gt;node_2db0e0e3</title>
<path fill="none" stroke="#d55e00" stroke-width="2" d="M174.34,-690C174.34,-690 292.17,-690 292.17,-690"/>
<polygon fill="#d55e00" stroke="#d55e00" stroke-width="2" points="292.17,-693.5 302.17,-690 292.17,-686.5 292.17,-693.5"/>
</g>
<!-- node_2db0e0e3&#45;&gt;node_d8e104d8 -->
<g id="edge40" class="edge">
<title>node_2db0e0e3&#45;&gt;node_d8e104d8</title>
<path fill="none" stroke="#009e73" stroke-width="2" d="M354.75,-671.72C354.75,-577.4 354.75,-150 354.75,-150 354.75,-150 426.91,-150 426.91,-150"/>
<polygon fill="#009e73" stroke="#009e73" stroke-width="2" points="426.91,-153.5 436.91,-150 426.91,-146.5 426.91,-153.5"/>
</g>
<!-- node_2db0e0e3&#45;&gt;node_08881b66 -->
<g id="edge42" class="edge">
<title>node_2db0e0e3&#45;&gt;node_08881b66</title>
<path fill="none" stroke="#009e73" stroke-width="2" d="M329.75,-671.65C329.75,-566.2 329.75,-42 329.75,-42 329.75,-42 405.21,-42 405.21,-42"/>
<polygon fill="#009e73" stroke="#009e73" stroke-width="2" points="405.21,-45.5 415.21,-42 405.21,-38.5 405.21,-45.5"/>
</g>
<!-- node_2db0e0e3&#45;&gt;node_f8b8e4ed -->
<g id="edge43" class="edge">
<title>node_2db0e0e3&#45;&gt;node_f8b8e4ed</title>
<path fill="none" stroke="#009e73" stroke-width="2" d="M379.5,-679.67C402.54,-679.67 427.75,-679.67 427.75,-679.67 427.75,-679.67 427.75,-127.46 427.75,-127.46"/>
<polygon fill="#009e73" stroke="#009e73" stroke-width="2" points="431.25,-127.46 427.75,-117.46 424.25,-127.46 431.25,-127.46"/>
</g>
<!-- node_cc07c6ce -->
<g id="node27" class="node">
<title>node_cc07c6ce</title>
<path fill="#cccccc" stroke="black" d="M519.25,-950C519.25,-950 452.25,-950 452.25,-950 446.25,-950 440.25,-944 440.25,-938 440.25,-938 440.25,-926 440.25,-926 440.25,-920 446.25,-914 452.25,-914 452.25,-914 519.25,-914 519.25,-914 525.25,-914 531.25,-920 531.25,-926 531.25,-926 531.25,-938 531.25,-938 531.25,-944 525.25,-950 519.25,-950"/>
<text text-anchor="middle" x="485.75" y="-926.95" font-family="Times New Roman,serif" font-size="14.00">25: __init__()</text>
</g>
<!-- node_2db0e0e3&#45;&gt;node_cc07c6ce -->
<g id="edge44" class="edge">
<title>node_2db0e0e3&#45;&gt;node_cc07c6ce</title>
<path fill="none" stroke="#009e73" stroke-width="2" d="M379.43,-701.5C413.53,-701.5 458.75,-701.5 458.75,-701.5 458.75,-701.5 458.75,-900.5 458.75,-900.5"/>
<polygon fill="#009e73" stroke="#009e73" stroke-width="2" points="455.25,-900.5 458.75,-910.5 462.25,-900.5 455.25,-900.5"/>
</g>
<!-- node_ac70beec -->
<g id="node29" class="node">
<title>node_ac70beec</title>
<path fill="#cccccc" stroke="black" d="M517.38,-1004C517.38,-1004 454.12,-1004 454.12,-1004 448.12,-1004 442.12,-998 442.12,-992 442.12,-992 442.12,-980 442.12,-980 442.12,-974 448.12,-968 454.12,-968 454.12,-968 517.38,-968 517.38,-968 523.38,-968 529.38,-974 529.38,-980 529.38,-980 529.38,-992 529.38,-992 529.38,-998 523.38,-1004 517.38,-1004"/>
<text text-anchor="middle" x="485.75" y="-980.95" font-family="Times New Roman,serif" font-size="14.00">97: retrieve()</text>
</g>
<!-- node_2db0e0e3&#45;&gt;node_ac70beec -->
<g id="edge46" class="edge">
<title>node_2db0e0e3&#45;&gt;node_ac70beec</title>
<path fill="none" stroke="#009e73" stroke-width="2" d="M323.75,-708.07C323.75,-772.34 323.75,-986 323.75,-986 323.75,-986 428.88,-986 428.88,-986"/>
<polygon fill="#009e73" stroke="#009e73" stroke-width="2" points="428.88,-989.5 438.88,-986 428.88,-982.5 428.88,-989.5"/>
</g>
<!-- node_fe573194 -->
<g id="node44" class="node">
<title>node_fe573194</title>
<path fill="#6db33f" stroke="black" d="M921,-749C921,-749 834.5,-749 834.5,-749 828.5,-749 822.5,-743 822.5,-737 822.5,-737 822.5,-725 822.5,-725 822.5,-719 828.5,-713 834.5,-713 834.5,-713 921,-713 921,-713 927,-713 933,-719 933,-725 933,-725 933,-737 933,-737 933,-743 927,-749 921,-749"/>
<text text-anchor="middle" x="877.75" y="-725.95" font-family="Times New Roman,serif" font-size="14.00">105: load_yaml()</text>
</g>
<!-- node_2db0e0e3&#45;&gt;node_fe573194 -->
<g id="edge48" class="edge">
<title>node_2db0e0e3&#45;&gt;node_fe573194</title>
<path fill="none" stroke="#009e73" stroke-width="2" d="M341.75,-708.1C341.75,-719.09 341.75,-731 341.75,-731 341.75,-731 809.13,-731 809.13,-731"/>
<polygon fill="#009e73" stroke="#009e73" stroke-width="2" points="809.13,-734.5 819.13,-731 809.13,-727.5 809.13,-734.5"/>
</g>
<!-- node_cc07c6ce&#45;&gt;node_e333b74a -->
<g id="edge49" class="edge">
<title>node_cc07c6ce&#45;&gt;node_e333b74a</title>
<path fill="none" stroke="#d55e00" stroke-width="2" d="M512.75,-913.68C512.75,-874.27 512.75,-785 512.75,-785 512.75,-785 792.61,-785 792.61,-785"/>
<polygon fill="#d55e00" stroke="#d55e00" stroke-width="2" points="792.61,-788.5 802.61,-785 792.61,-781.5 792.61,-788.5"/>
</g>
<!-- node_d5fe0f70 -->
<g id="node28" class="node">
<title>node_d5fe0f70</title>
<path fill="#6db33f" stroke="black" d="M728.75,-1004C728.75,-1004 630.25,-1004 630.25,-1004 624.25,-1004 618.25,-998 618.25,-992 618.25,-992 618.25,-980 618.25,-980 618.25,-974 624.25,-968 630.25,-968 630.25,-968 728.75,-968 728.75,-968 734.75,-968 740.75,-974 740.75,-980 740.75,-980 740.75,-992 740.75,-992 740.75,-998 734.75,-1004 728.75,-1004"/>
<text text-anchor="middle" x="679.5" y="-980.95" font-family="Times New Roman,serif" font-size="14.00">56: batch_process()</text>
</g>
<!-- node_ac70beec&#45;&gt;node_d5fe0f70 -->
<g id="edge50" class="edge">
<title>node_ac70beec&#45;&gt;node_d5fe0f70</title>
<path fill="none" stroke="#f0e442" stroke-width="2" d="M529.71,-996.8C529.71,-996.8 605.06,-996.8 605.06,-996.8"/>
<polygon fill="#f0e442" stroke="#f0e442" stroke-width="2" points="605.06,-1000.3 615.06,-996.8 605.06,-993.3 605.06,-1000.3"/>
</g>
<!-- node_424e8dab -->
<g id="node30" class="node">
<title>node_424e8dab</title>
<path fill="#6db33f" stroke="black" d="M721.25,-950C721.25,-950 637.75,-950 637.75,-950 631.75,-950 625.75,-944 625.75,-938 625.75,-938 625.75,-926 625.75,-926 625.75,-920 631.75,-914 637.75,-914 637.75,-914 721.25,-914 721.25,-914 727.25,-914 733.25,-920 733.25,-926 733.25,-926 733.25,-938 733.25,-938 733.25,-944 727.25,-950 721.25,-950"/>
<text text-anchor="middle" x="679.5" y="-926.95" font-family="Times New Roman,serif" font-size="14.00">79: sim_search()</text>
</g>
<!-- node_ac70beec&#45;&gt;node_424e8dab -->
<g id="edge52" class="edge">
<title>node_ac70beec&#45;&gt;node_424e8dab</title>
<path fill="none" stroke="#f0e442" stroke-width="2" d="M529.83,-989.6C541.42,-989.6 550.75,-989.6 550.75,-989.6 550.75,-989.6 550.75,-932 550.75,-932 550.75,-932 612.24,-932 612.24,-932"/>
<polygon fill="#f0e442" stroke="#f0e442" stroke-width="2" points="612.24,-935.5 622.24,-932 612.24,-928.5 612.24,-935.5"/>
</g>
<!-- node_ac70beec&#45;&gt;node_8fb67e2b -->
<g id="edge53" class="edge">
<title>node_ac70beec&#45;&gt;node_8fb67e2b</title>
<path fill="none" stroke="#f0e442" stroke-width="2" d="M529.62,-975.2C536.15,-975.2 540.75,-975.2 540.75,-975.2 540.75,-975.2 540.75,-575 540.75,-575 540.75,-575 813.17,-575 813.17,-575"/>
<polygon fill="#f0e442" stroke="#f0e442" stroke-width="2" points="813.17,-578.5 823.17,-575 813.17,-571.5 813.17,-578.5"/>
</g>
<!-- node_ac70beec&#45;&gt;node_815d6953 -->
<g id="edge54" class="edge">
<title>node_ac70beec&#45;&gt;node_815d6953</title>
<path fill="none" stroke="#f0e442" stroke-width="2" d="M529.82,-982.4C537.32,-982.4 542.75,-982.4 542.75,-982.4 542.75,-982.4 542.75,-687.33 542.75,-687.33 542.75,-687.33 814.93,-687.33 814.93,-687.33"/>
<polygon fill="#f0e442" stroke="#f0e442" stroke-width="2" points="814.93,-690.83 824.93,-687.33 814.93,-683.83 814.93,-690.83"/>
</g>
<!-- node_fd6a9759 -->
<g id="node32" class="node">
<title>node_fd6a9759</title>
<path fill="#6db33f" stroke="black" d="M747.88,-1143C747.88,-1143 611.12,-1143 611.12,-1143 605.12,-1143 599.12,-1137 599.12,-1131 599.12,-1131 599.12,-1119 599.12,-1119 599.12,-1113 605.12,-1107 611.12,-1107 611.12,-1107 747.88,-1107 747.88,-1107 753.88,-1107 759.88,-1113 759.88,-1119 759.88,-1119 759.88,-1131 759.88,-1131 759.88,-1137 753.88,-1143 747.88,-1143"/>
<text text-anchor="middle" x="679.5" y="-1119.95" font-family="Times New Roman,serif" font-size="14.00">139: cache_ground_truth()</text>
</g>
<!-- node_78430153&#45;&gt;node_fd6a9759 -->
<g id="edge55" class="edge">
<title>node_78430153&#45;&gt;node_fd6a9759</title>
<path fill="none" stroke="#009e73" stroke-width="2" d="M534.89,-1131C534.89,-1131 585.75,-1131 585.75,-1131"/>
<polygon fill="#009e73" stroke="#009e73" stroke-width="2" points="585.75,-1134.5 595.75,-1131 585.75,-1127.5 585.75,-1134.5"/>
</g>
<!-- node_78430153&#45;&gt;node_e333b74a -->
<g id="edge56" class="edge">
<title>node_78430153&#45;&gt;node_e333b74a</title>
<path fill="none" stroke="#009e73" stroke-width="2" d="M535.01,-1119C540.83,-1119 544.75,-1119 544.75,-1119 544.75,-1119 544.75,-794 544.75,-794 544.75,-794 792.88,-794 792.88,-794"/>
<polygon fill="#009e73" stroke="#009e73" stroke-width="2" points="792.88,-797.5 802.88,-794 792.88,-790.5 792.88,-797.5"/>
</g>
<!-- node_79999c46 -->
<g id="node33" class="node">
<title>node_79999c46</title>
<path fill="#6db33f" stroke="black" d="M1136.12,-1143C1136.12,-1143 1033.12,-1143 1033.12,-1143 1027.12,-1143 1021.12,-1137 1021.12,-1131 1021.12,-1131 1021.12,-1119 1021.12,-1119 1021.12,-1113 1027.12,-1107 1033.12,-1107 1033.12,-1107 1136.12,-1107 1136.12,-1107 1142.12,-1107 1148.12,-1113 1148.12,-1119 1148.12,-1119 1148.12,-1131 1148.12,-1131 1148.12,-1137 1142.12,-1143 1136.12,-1143"/>
<text text-anchor="middle" x="1084.62" y="-1119.95" font-family="Times New Roman,serif" font-size="14.00">127: calculate_dcg()</text>
</g>
<!-- node_2fd8fb85 -->
<g id="node34" class="node">
<title>node_2fd8fb85</title>
<path fill="#6db33f" stroke="black" d="M925.12,-1089C925.12,-1089 830.38,-1089 830.38,-1089 824.38,-1089 818.38,-1083 818.38,-1077 818.38,-1077 818.38,-1065 818.38,-1065 818.38,-1059 824.38,-1053 830.38,-1053 830.38,-1053 925.12,-1053 925.12,-1053 931.12,-1053 937.12,-1059 937.12,-1065 937.12,-1065 937.12,-1077 937.12,-1077 937.12,-1083 931.12,-1089 925.12,-1089"/>
<text text-anchor="middle" x="877.75" y="-1065.95" font-family="Times New Roman,serif" font-size="14.00">122: calculate_f1()</text>
</g>
<!-- node_4b99133f -->
<g id="node35" class="node">
<title>node_4b99133f</title>
<path fill="#cccccc" stroke="black" d="M932.62,-1143C932.62,-1143 822.88,-1143 822.88,-1143 816.88,-1143 810.88,-1137 810.88,-1131 810.88,-1131 810.88,-1119 810.88,-1119 810.88,-1113 816.88,-1107 822.88,-1107 822.88,-1107 932.62,-1107 932.62,-1107 938.62,-1107 944.62,-1113 944.62,-1119 944.62,-1119 944.62,-1131 944.62,-1131 944.62,-1137 938.62,-1143 932.62,-1143"/>
<text text-anchor="middle" x="877.75" y="-1119.95" font-family="Times New Roman,serif" font-size="14.00">133: calculate_ndcg()</text>
</g>
<!-- node_4b99133f&#45;&gt;node_79999c46 -->
<g id="edge57" class="edge">
<title>node_4b99133f&#45;&gt;node_79999c46</title>
<path fill="none" stroke="#cc79a7" stroke-width="2" d="M944.92,-1125C944.92,-1125 1007.93,-1125 1007.93,-1125"/>
<polygon fill="#cc79a7" stroke="#cc79a7" stroke-width="2" points="1007.93,-1128.5 1017.93,-1125 1007.93,-1121.5 1007.93,-1128.5"/>
</g>
<!-- node_51d7fd17 -->
<g id="node37" class="node">
<title>node_51d7fd17</title>
<path fill="#cccccc" stroke="black" d="M752.38,-1089C752.38,-1089 606.62,-1089 606.62,-1089 600.62,-1089 594.62,-1083 594.62,-1077 594.62,-1077 594.62,-1065 594.62,-1065 594.62,-1059 600.62,-1053 606.62,-1053 606.62,-1053 752.38,-1053 752.38,-1053 758.38,-1053 764.38,-1059 764.38,-1065 764.38,-1065 764.38,-1077 764.38,-1077 764.38,-1083 758.38,-1089 752.38,-1089"/>
<text text-anchor="middle" x="679.5" y="-1065.95" font-family="Times New Roman,serif" font-size="14.00">148: evaluate_results_at_k()</text>
</g>
<!-- node_6ba67d6b&#45;&gt;node_51d7fd17 -->
<g id="edge59" class="edge">
<title>node_6ba67d6b&#45;&gt;node_51d7fd17</title>
<path fill="none" stroke="#009e73" stroke-width="2" d="M534.89,-1077C534.89,-1077 581.22,-1077 581.22,-1077"/>
<polygon fill="#009e73" stroke="#009e73" stroke-width="2" points="581.22,-1080.5 591.22,-1077 581.22,-1073.5 581.22,-1080.5"/>
</g>
<!-- node_6ba67d6b&#45;&gt;node_c638531b -->
<g id="edge60" class="edge">
<title>node_6ba67d6b&#45;&gt;node_c638531b</title>
<path fill="none" stroke="#009e73" stroke-width="2" d="M485.75,-1052.73C485.75,-1041.21 485.75,-1028.5 485.75,-1028.5 485.75,-1028.5 961.75,-1028.5 961.75,-1028.5 961.75,-1028.5 961.75,-578 961.75,-578 961.75,-578 1021.97,-578 1021.97,-578"/>
<polygon fill="#009e73" stroke="#009e73" stroke-width="2" points="1021.97,-581.5 1031.97,-578 1021.97,-574.5 1021.97,-581.5"/>
</g>
<!-- node_6ba67d6b&#45;&gt;node_6c7e785b -->
<g id="edge61" class="edge">
<title>node_6ba67d6b&#45;&gt;node_6c7e785b</title>
<path fill="none" stroke="#009e73" stroke-width="2" d="M535.02,-1065C541.39,-1065 545.75,-1065 545.75,-1065 545.75,-1065 545.75,-839 545.75,-839 545.75,-839 812.85,-839 812.85,-839"/>
<polygon fill="#009e73" stroke="#009e73" stroke-width="2" points="812.85,-842.5 822.85,-839 812.85,-835.5 812.85,-842.5"/>
</g>
<!-- node_51d7fd17&#45;&gt;node_2fd8fb85 -->
<g id="edge62" class="edge">
<title>node_51d7fd17&#45;&gt;node_2fd8fb85</title>
<path fill="none" stroke="#cc79a7" stroke-width="2" d="M764.73,-1065C764.73,-1065 804.98,-1065 804.98,-1065"/>
<polygon fill="#cc79a7" stroke="#cc79a7" stroke-width="2" points="804.98,-1068.5 814.98,-1065 804.98,-1061.5 804.98,-1068.5"/>
</g>
<!-- node_51d7fd17&#45;&gt;node_4b99133f -->
<g id="edge63" class="edge">
<title>node_51d7fd17&#45;&gt;node_4b99133f</title>
<path fill="none" stroke="#cc79a7" stroke-width="2" d="M764.77,-1077C791.78,-1077 814.75,-1077 814.75,-1077 814.75,-1077 814.75,-1093.55 814.75,-1093.55"/>
<polygon fill="#cc79a7" stroke="#cc79a7" stroke-width="2" points="811.25,-1093.55 814.75,-1103.55 818.25,-1093.55 811.25,-1093.55"/>
</g>
<!-- node_51da42f2 -->
<g id="node38" class="node">
<title>node_51da42f2</title>
<path fill="#6db33f" stroke="black" d="M1171.75,-749C1171.75,-749 997.5,-749 997.5,-749 991.5,-749 985.5,-743 985.5,-737 985.5,-737 985.5,-725 985.5,-725 985.5,-719 991.5,-713 997.5,-713 997.5,-713 1171.75,-713 1171.75,-713 1177.75,-713 1183.75,-719 1183.75,-725 1183.75,-725 1183.75,-737 1183.75,-737 1183.75,-743 1177.75,-749 1171.75,-749"/>
<text text-anchor="middle" x="1084.62" y="-725.95" font-family="Times New Roman,serif" font-size="14.00">46: check_and_create_directory()</text>
</g>
<!-- node_8fb67e2b&#45;&gt;node_c638531b -->
<g id="edge64" class="edge">
<title>node_8fb67e2b&#45;&gt;node_c638531b</title>
<path fill="none" stroke="#009e73" stroke-width="2" d="M929.15,-569C929.15,-569 1021.89,-569 1021.89,-569"/>
<polygon fill="#009e73" stroke="#009e73" stroke-width="2" points="1021.89,-572.5 1031.89,-569 1021.89,-565.5 1021.89,-572.5"/>
</g>
<!-- node_407da2d7 -->
<g id="node43" class="node">
<title>node_407da2d7</title>
<path fill="#6db33f" stroke="black" d="M1123.75,-857C1123.75,-857 1045.5,-857 1045.5,-857 1039.5,-857 1033.5,-851 1033.5,-845 1033.5,-845 1033.5,-833 1033.5,-833 1033.5,-827 1039.5,-821 1045.5,-821 1045.5,-821 1123.75,-821 1123.75,-821 1129.75,-821 1135.75,-827 1135.75,-833 1135.75,-833 1135.75,-845 1135.75,-845 1135.75,-851 1129.75,-857 1123.75,-857"/>
<text text-anchor="middle" x="1084.62" y="-833.95" font-family="Times New Roman,serif" font-size="14.00">72: load_jsonl()</text>
</g>
<!-- node_815d6953&#45;&gt;node_51da42f2 -->
<g id="edge65" class="edge">
<title>node_815d6953&#45;&gt;node_51da42f2</title>
<path fill="none" stroke="#009e73" stroke-width="2" d="M927.83,-677C962.24,-677 1001.75,-677 1001.75,-677 1001.75,-677 1001.75,-699.69 1001.75,-699.69"/>
<polygon fill="#009e73" stroke="#009e73" stroke-width="2" points="998.25,-699.69 1001.75,-709.69 1005.25,-699.69 998.25,-699.69"/>
</g>
<!-- node_6c7e785b&#45;&gt;node_51da42f2 -->
<g id="edge66" class="edge">
<title>node_6c7e785b&#45;&gt;node_51da42f2</title>
<path fill="none" stroke="#009e73" stroke-width="2" d="M929.73,-833C964.43,-833 1003.75,-833 1003.75,-833 1003.75,-833 1003.75,-762.26 1003.75,-762.26"/>
<polygon fill="#009e73" stroke="#009e73" stroke-width="2" points="1007.25,-762.26 1003.75,-752.26 1000.25,-762.26 1007.25,-762.26"/>
</g>
<!-- node_6c7e785b&#45;&gt;node_407da2d7 -->
<g id="edge67" class="edge">
<title>node_6c7e785b&#45;&gt;node_407da2d7</title>
<path fill="none" stroke="#009e73" stroke-width="2" d="M929.69,-845C929.69,-845 1020,-845 1020,-845"/>
<polygon fill="#009e73" stroke="#009e73" stroke-width="2" points="1020,-848.5 1030,-845 1020,-841.5 1020,-848.5"/>
</g>
</g>
</svg>
